<svg xmlns="http://www.w3.org/2000/svg" xmlns:xlink="http://www.w3.org/1999/xlink" enable-background="new 0 0 1073.4 635.1" viewBox="0 0 1073.4 635.1" id="couple-discussing-about-pick-of-income-for-savings"><path fill="#f8f8ff" d="M53.9 573.7c-32.5-30-54-73.4-47.7-117.2 13.1-90-45.9-204.4 49.3-237.9 48.1-17 40.2-142 78.8-176.8 66.7-60 173.5 16.1 384.7 4.8C725.8 35.5 817.2-72.8 958.7 84.8c110.3 122.9 26.9 190.2 105 303.3 47.8 69.2-94.8 216.1-94.8 216.1l-882.3-.4-32.7-30.1z"></path><linearGradient id="a" x1="1044.234" x2="1043.704" y1="-112.87" y2="339.25" gradientTransform="matrix(1 0 0 -1 -517.22 491.38)" gradientUnits="userSpaceOnUse"><stop offset="0" stop-color="#fff"></stop><stop offset="1" stop-color="#bac6f2"></stop></linearGradient><path fill="url(#a)" stroke="#bac6f2" stroke-miterlimit="10" stroke-width="5" d="M61.8 623.4s9-126 79.5-113.5c70.1 12.4 62 76 98 68s38.9-93.8 53-196c12.2-88.7 60.8-61.5 69.9-32.9 7.6 24 10.6 99.4 39.6 104.4s39-52 41-80 12-142 48.5-143.5c34.5-1.4 49.5 49.5 49.5 146.5s4 160 20 186 37 19 43.5 15.5c8.1-4.4 32.5-45.5 38.5-147.5s46-87 55-72 33.5 97.5 63.5 95.5 38.5-21.5 43.5-67.5 12.4-159.9 50.5-158.5c39.5 1.5 55.3 181.6 54.7 235.8-.8 68.3 50.3 149.2 82.3 149.2"></path><circle cx="236.8" cy="577.4" r="13" fill="#bac6f2"></circle><circle cx="60.8" cy="622.1" r="13" fill="#bac6f2"></circle><circle cx="409.8" cy="451.4" r="13" fill="#bac6f2"></circle><circle cx="329.8" cy="322.5" r="13" fill="#bac6f2"></circle><circle cx="496" cy="231.2" r="13" fill="#bac6f2"></circle><circle cx="680.8" cy="350.4" r="13" fill="#bac6f2"></circle><circle cx="769.6" cy="453.6" r="13" fill="#bac6f2"></circle><circle cx="853" cy="229.8" r="13" fill="#bac6f2"></circle><circle cx="991.9" cy="614" r="13" fill="#bac6f2"></circle><circle cx="589.8" cy="578.4" r="13" fill="#bac6f2"></circle><circle cx="208.6" cy="180.8" r="47.9" fill="#fff"></circle><circle cx="256.4" cy="184.3" r="34.6" fill="#fff" transform="rotate(-80.781 256.403 184.296)"></circle><circle cx="777.3" cy="114.7" r="47.9" fill="#fff"></circle><circle cx="825.2" cy="118.1" r="34.6" fill="#fff"></circle><path fill="#bac6f2" d="m939 335.1 23.8-34c2.6-4.6 9.9-4.2 13.4-.3l23.4 32c4.8 5.4 2.3 15.4-4.9 15.5l-47.3.8c-5.2.1-9.5-4.1-9.5-9.3-.1-1.6.3-3.2 1.1-4.7zM91 358.8l-23.8 33.9c-2.6 4.6-9.9 4.2-13.4.2l-23.3-32.1c-4.8-5.4-2.2-15.4 5-15.5l47.3-.7c5.2 0 9.5 4.1 9.5 9.3-.1 1.8-.5 3.5-1.3 4.9z"></path><path fill="#4b44be" d="m127 583-3.2-.1-16.5.2s-3.6 17-5.6 24c-.1.4-.5 1.6-.7 2.5-.3 1.2-.4 2.5-.4 3.7.4 6.4 2.7 11.8 8.5 14.7 6.3 3.2 11.1 6.1 17.8 0 6.7-6.1 7.6-10 5-20.6-2.4-10.6-3.3-24.1-4.9-24.4zM196.1 604.1c-11.4-3.6-19-19.1-19-19.1l-19.4-1.1s-1.1 15.7-1.6 23.7c-.7 10.6 1.1 15.3 8 14.7 9.2-.7 46.5 2.6 52.4-1.1 7.8-5-9.8-13.8-20.4-17.1z"></path><linearGradient id="b" x1="79.508" x2="199.855" y1="568.644" y2="568.644" gradientTransform="translate(0 -124)" gradientUnits="userSpaceOnUse"><stop offset="0" stop-color="#4f68ca"></stop><stop offset="1" stop-color="#5aceed"></stop></linearGradient><path fill="url(#b)" d="M79.5 303.9v23.2l28.1 256.1h19.9s6.9-175.6 6.9-181.7c0-6.1 1.8-25.2 1.8-25.2s25 72.1 25.4 78.1-4.1 130.2-4.1 130.2l19.9.8s17.4-84.1 17.4-92 5.9-49.3 5-57.2c-.9-7.9-15.6-131.7-15.6-131.7l-30.5-.8-74.2.2z"></path><linearGradient id="c" x1="51.607" x2="214.978" y1="294.181" y2="294.181" gradientTransform="translate(0 -124)" gradientUnits="userSpaceOnUse"><stop offset="0" stop-color="#f87b58"></stop><stop offset="0" stop-color="#f87b58"></stop><stop offset=".41" stop-color="#f89453"></stop><stop offset=".71" stop-color="#f8c548"></stop><stop offset="1" stop-color="#f89c51"></stop></linearGradient><path fill="url(#c)" d="m208.3 277-.3-.4c.2.3.2.5.3.4M150 254.5l-11.1 4.6-.6 15.4 12.3 4.9c0-.1 13.4-.5 13.4-.6.1-.6 5.3-.4 7.7 1.1l41.6-14.3 1.5-10s3.1 12.5-10.9-12.7L150 254.5zm49.7-50.7-.9-5-2.1-.4 3 5.4M122.8 70.1c-5.1 2.1-7.6 9.6-7.6 9.6s-2.5-1.5-2.5 2.7 2.1 13.8 3.6 16.2c2.6 4.1 5 8.4 7.2 12.8 2 4.4 1.3 13.4-.8 14.7-2.1 1.3-39.9 35.2-39.9 35.2L51.6 257v3.8l4.8 1.7 4.9 4.2c.4.1 6.7 3.5 7.6 4.1 4.9 2.5 10.2 4.3 15.6 5.6 3.5.7 19.2.4 19.2.4l15.8-.4-2.7-20.1-23.4-.3-32-1.6 32.4-74.5L196 198.2c-18.2-32.8-38.6-69.8-40.4-73.6-1.5-3.2.1-10.8 1-14.7.8-3.6 2.6-8 4.2-9.4s4.7-7.2 4.7-9.7c0-2.6.7-12.5-1.4-10.4-.6.6-3.1-3.2-4-7-1.4-5.5-5.2-9.4-9.6-12.9 0 0-22.5 7.4-27.5 9.5"></path><linearGradient id="d" x1="45.128" x2="217.811" y1="352.499" y2="352.499" gradientTransform="translate(0 -124)" gradientUnits="userSpaceOnUse"><stop offset="0" stop-color="#e1a1ed"></stop><stop offset="1" stop-color="#7658f4"></stop></linearGradient><path fill="url(#d)" d="M83.7 140.9c-4.9 3.4-9.5 7.9-11.2 13.7-1.7 5.8-13.6 51.2-15.2 56.9-3.9 14-6.2 18.1-10.8 34.6-5.7 20.3 7.3 23.4 20.6 26.4 13.8 3.1 13.9 4.4 17.1 4.4.5 0 16.9 3.4 17.4-5.9.4-5.8-.7-15.1-2.9-14.8-5 .7-21.3-3.6-22.1-4.1-1.1-.7 3.5-13.4 6.2-21.3 1.9-5.8 9.4-30 11.1-34.5.9-2.5-4.2 23.5-7.3 48.9-.1 1-1.3 10.9-1 10.9 3.7 0 13.9.2 17 .5 14.3 1.7 17 8.5 16.2 14-1.6 9.5-36.4 5.1-36.2 6.4 0 0-6 27-2.6 28.7 2.9 1.5 41.9 17.7 50.2 20.9.9.4 1.9-.1 2.3-1.1v-.1l5.3-15.2c.1-.2.3-.3.4-.2.1 0 .2.1.2.2l5 16.6c.1.4.4.8.8 1h2.2l43.4-9.4s-.2-17.1-.3-39c0-2.2-.4-10.3-1.9-8.8-1.6 1.5-37.8 6.3-41.8 4.6-8.4-3.5-6.2-12.3-3.3-15.9 3.4-4.1 46.1-6.2 46.3-9.3.7-13.4-.4-48.7-1.1-44.4-1.1 6.6-26 42.8-26 49.1s-.4 22.2-.4 22.2l41.1-3.2s13.8-4.8 15-12.7c1.2-7.9-.3-11.5-.8-23.3-.4-7.5-10.9-52.6-14-65.4-.4-1.9-.7-3.9-.9-5.8-.4-5.3-2.5-17.7-13.9-23-14.1-6.7-25.2-12-28-12-2.6 0-9.9 15.9-13.7 20.4-1.7 2-1.3 3-3.5 6-1.1 1.6-3.3 1.9-4.9.8-.4-.3-.6-.6-.9-1-1.2-1.8-2.3-3.7-3.3-5.7-1.7-3.4-14.7-22.5-14.7-22.5s-30.2 7.9-35.1 11.4"></path><linearGradient id="e" x1="109.518" x2="167.004" y1="188.14" y2="188.14" gradientTransform="translate(0 -124)" gradientUnits="userSpaceOnUse"><stop offset="0" stop-color="#5aceed"></stop><stop offset=".55" stop-color="#4f68ca"></stop><stop offset="1" stop-color="#5282d3"></stop></linearGradient><path fill="url(#e)" d="M150.5 60.7S122.8 71 120.8 72.5c-1.9 1.5-5.7 7.2-5.7 7.2s-1.9-1.1-2.4 1.9c0 0-2.8-5.8-3.2-9.1-.4-3.3 0-11.7 5.3-17.2 5.3-5.6 16-12.9 22.6-11.9 6.6 1 9.4 1.8 13.6 5.9s7.7 5.4 8.9 6c1.2.6 6 4.1 6.8 10.5s-1.4 19.3-1.4 19.3.6-5-1.4-3.4c-1.4 1.1-3.4-3.5-4.1-6.3-.7-2.7-7.8-14-9.3-14.7z"></path><g opacity=".07"><defs><path id="f" d="M142 112.1h18.4v30.1H142z"></path></defs><clipPath id="g"><use overflow="visible" xlink:href="#f"></use></clipPath><path d="M159.8 131.3c-.2-.5 3 1.9-.7-.8-5.2-3.8-2.7-19.3-2.7-19.3-1.9 4.1-5.3 7.2-9.4 8.8-6.6 2.5-8.7.6 1.6 6.5 10.1 5.8 4.9 7.9 4.1 15.5" clip-path="url(#g)"></path></g><g opacity=".07"><defs><path id="h" d="M150.7 167.7h51.2v88.9h-51.2z"></path></defs><clipPath id="i"><use overflow="visible" xlink:href="#h"></use></clipPath><path d="m180.1 186.3 13.8 52.2s-.1 9.3-2.8 10.7c-2.7 1.4-11.4 2.3-13.4 3.2-2 .9-23.1 5.3-17.7-2.1 1.2-1.7 29.8-11.7 17-22.2s-10.5-25.1-4.3-35.1c6.2-10.1 4.9-18.6 4.9-18.6l2.5 11.9z" clip-path="url(#i)"></path></g><g opacity=".07"><defs><path id="j" d="M75.1 304.4h41.8v317.8H75.1z"></path></defs><clipPath id="k"><use overflow="visible" xlink:href="#j"></use></clipPath><path d="M121.7 323.8s-11.9 63.2-5.7 88.5c9.4 38.3-4.1 90.1-4.1 115 0 16.2 6.4 60.8 6.8 79 .1 5.5 4.1 16.1 1.1 18.5-1.2 1.1-8.8-1.4-13-3.4-2.2-1.1-3.4-3.4-3.2-5.7l2.5-10.8 3.5-14.3-24.7-231.1S77 308 81.5 307.8s40.3 16 40.2 16" clip-path="url(#k)"></path></g><path fill="#fff" d="m110.4 238.8 46.7 5.8c1 .3 1.6 1.1 1.5 2.2l-1.3 42.2c-.1 1.3-.9 3.1-2.1 2.7l-46.4-8.9c-.9-.3-1.5-1.1-1.5-2l-.2-4.6 5.1-1.3c1.3-.4 2.6-1.1 3.6-1.9.3-.2.4-.4.6-.6l1.1-1.6c.4-.4.4-1.1.4-1.7-.2-1-.4-2.3-.6-3-.1-.3-.2-.5-.3-.7l-1.1-2.5c-.5-1.1-1.4-2-2.6-2.6l-.7-.4-5-2.7.4-16.5c0-1.1 1-2 2.1-2 .1.1.2.1.3.1z"></path><g><path fill="#4b44be" d="m867.2 590.2-14.3 3.3s-3.5 11.3-5.1 17.4c-.1.3-.4 1.4-.7 2.1-.2 1.1-.3 2.1-.3 3.2.3 5.4 2.4 10.1 7.2 12.5 5.3 2.7 9.5 5.2 15.1 0s6.6-8.5 4.2-17.5-6.1-20.8-6.1-21M950.4 609c-9.7-3-13.8-15-13.8-15l-19.4-1s-.4 12.2-1 18.8c-.7 8.8 1 12.7 6.8 12.2 7.8-.7 39.8 2.2 44.8-1 6.7-4-8.3-11.1-17.4-14"></path><linearGradient id="l" x1="827.047" x2="946.578" y1="-297.594" y2="-297.594" gradientTransform="matrix(1 0 0 -1 0 158)" gradientUnits="userSpaceOnUse"><stop offset="0" stop-color="#4f68ca"></stop><stop offset="1" stop-color="#5aceed"></stop></linearGradient><path fill="url(#l)" d="M837.2 316s-7.3 10-9.6 36.9 2.8 78.1 5.2 88 12 102.3 14.3 109.1 5.6 43.6 5.6 43.6l15.4.4s4.6-48 4.6-60.7c0-12.7 6.4-133 6-141.8-.4-8.8 1.6-6 1.6-6s13.5 43 17.5 50.2c4 7.2 11.2 21.2 11.2 21.2s1.6 45.1 3.6 71.2 4 67.1 4 67.1l20.7-.4s4.8-68.7 4.8-83.1c0-14.4 4.3-49.1 4.3-53.1s-13.5-74.2-13.5-74.2l-9.5-68.4h-86.2z"></path><linearGradient id="m" x1="841.526" x2="966.037" y1="490.63" y2="490.63" gradientTransform="translate(0 -272)" gradientUnits="userSpaceOnUse"><stop offset="0" stop-color="#f87b58"></stop><stop offset=".5" stop-color="#f8c548"></stop><stop offset="1" stop-color="#f89c51"></stop></linearGradient><path fill="url(#m)" d="M861.6 89.4c-7.1 2.6-16.1 37.7-16.1 37.7l-.1-.1-3.9 3.9 1.6 7.4L850 254l35.4-7.6 31-32.8 19.3 9.1s1.5 42 1.7 44.3c.2 2.3 3.5 65.8 3.5 70 .1 4.5 19 24.4 22.2 22.3 9.3-6.5-6.2-18.6-9.9-21.5-2.2-1.7-6.8-60.8-7.2-67.8-.3-7 10.8-24.7-8.5-48-14-17.1-21.6-60.8-33.4-110.6-6.2-25.9-9.9-33.6-16-33.6-5.4 0-13 6.6-26.5 11.6"></path><linearGradient id="n" x1="804.622" x2="952.987" y1="-98.649" y2="-98.649" gradientTransform="matrix(1 0 0 -1 0 158)" gradientUnits="userSpaceOnUse"><stop offset="0" stop-color="#e1a1ed"></stop><stop offset="1" stop-color="#7658f4"></stop></linearGradient><path fill="url(#n)" d="M855.6 188c-.1.3-13.5 6.6-19.2 13.7-5.8 7.1-10.4 17.3-10.4 17.3s-8.5 20-14.3 34.8c-3.2 7.9-13.5 40.4-1.1 41.6 11.7 1.1 37.7-26.5 41.7-31.7l4.5-10c.3-1.3-7-14.8-6.7-16 .2-2 17.2-11.8 19.8-6 .9 2 3.2 7.6 3.8 9.3 1.6 4.2-23 12.5-23 16.3 0 4.7-2.1 21.9-5.4 30.4-3.4 8.5-8.5 28.6-8.5 28.6l86.7.2s-2.9-38.6-1.7-51.4c0 0 3.7-42 5.9-46.2s5.9 51.9 5.3 63.4c-.4 8 6.8 56.3 8.9 58 3.4 2.6 11.3-2.6 11.3-2.6s-.3-52.9-.7-61.7.2-80-11.4-92.8c-11.6-12.8-14.8-12.5-24.4-9.1-9.7 3.4-14.4 6.6-27.6 8.8-8 1.4-16.4.3-23.9-2.9 2.1-7.5-2.3 5.2-1.7 1.7"></path><linearGradient id="o" x1="825.99" x2="939.86" y1="4.502" y2="4.502" gradientTransform="matrix(1 0 0 -1 0 158)" gradientUnits="userSpaceOnUse"><stop offset="0" stop-color="#4b44be"></stop><stop offset="1" stop-color="#5bd3ef"></stop></linearGradient><path fill="url(#o)" d="M868.5 69.6s-17.3.7-22.2 17.5-5.6 40.5-5.8 44.2c-.2 3.9 1.8 30.4-.3 37.8-2 6.5-7.5 18.6-10.9 26.9-1.3 3.3-2.3 6.7-2.9 10.2l-.4 2.8c.9 2.9 4 4.7 7.1 3.7.2-.1.4-.1.5-.2 1.7-.8 3.4-1.6 5-2.6 5.2-3.2 11.8-11.5 17.1-14.1 5.5-2.7 11.8-15.3 12.7-16.3.9-1 .5-4.1.7-7.2.5-15.8-2.4-30.2-6.1-37.8-3.7-7.6-12.2-22.5-6.3-31.1S874.8 88 875.3 86c.5-2.1.9 8.3 7.4 12s15.6 13.6 15.6 15.8 2.2 9.2-4 21.5-11.1 27.9-2.5 39.7c8.6 11.7 30.2 28 31.7 31.7 1.5 3.7 0 20.1-.5 29.3s17.5-15.8 16.8-27.8c-.7-12.1 1.5-17.3-10.8-35.6-12.3-18.4-20.3-50.1-20.6-57.8-.3-7.7-4-29-11.4-35.2-6.3-5.2-7.7-10.3-20.9-10.3-2.5-.2-5.1 0-7.6.3"></path><g opacity=".07"><defs><path id="p" d="M826.6 86.7h50v543.2h-50z"></path></defs><clipPath id="q"><use overflow="visible" xlink:href="#p"></use></clipPath><path d="M861.8 231.1c-2.6 1.1-5.1 2.3-7.5 3.7l-2.6 1.3s-27.6 28.8-26.4 27.3c5.3-6.6 21.8-41.8 27.4-50 5.9-8.5 9.1-5.1 15.5 17.4" clip-path="url(#q)"></path></g><path d="M860.5 593.4c.1.3.1.7.1 1 .1 2.4 0 8.4-2.6 12.2-3.3 5 4.5 16 4.5 18.7s-3.6 5.2-6.1 4.5c-2.5-.8-12.9-6.6-8.8-19.2 1.6-5.1 2.6-9.6 3.6-12.4.5-1.4 1-2.8 1.4-4.2.1-.7.1-1.3.1-2-.1-.9-.1-1.8-.2-2.8-.5-4.9-21.2-157.3-21.9-163.2-.7-5.2-3.7-37.5-3.4-56.4-.2-1.6-.2-3.3-.1-4.8 0-.4.2-2.3.1-3 .1-1.7.2-3.5.4-5.2-.3-1.4-.1-1.4 0-3.7s0-3.6.2-5c2.1-12.8 6.7-27.4 9-31.5l.7-2.3s5.2-19.3 7-22.9c1.5-3.3 5.9-20.3 5.4-23.9-.2-2 6.7-9.6 6.7-9.6l1.4-1.2c.7-.1 1.4 0 2.1.2 1.5.7 7.4-4.5 8.4-1.2 7 22.3 9.8 31.7-2.5 45s-1 25.1-.8 34.4c.5 23-10.6 20.5-11.3 34.9s2.5 24.7 2.7 32.2c.5 24.7.2 29.5-1.1 39.2s-7.9 28-.5 64.1 6.3 39.3 5.5 59.8c-.7 20.3 0 28.3 0 28.3" opacity=".07"></path><path fill="#efefef" d="m849.1 220.8.2-.1c.9-.4 6-3 9.6-4.5 4-1.6 8.9 12.1 10.1 14.8.1.2.1.2-.8.3-2.9.3-5.9.9-8.7 1.6-4.1 1-8.8 4.2-9 4.3s-1.4-2.5-3.8-8.6c-.5-1.4-1.7-5.1-.7-6l3.1-1.8z"></path><path d="M880.3 148.1c2.6 1 5.6.3 7.6-1.7 3.5-3.5-1.3 8.6-.5 11.3.7 2.7-7.1-9.6-7.1-9.6z" enable-background="new" opacity=".07"></path><path fill="#efefef" d="M856.7 252.6s16.4-10.8 16.6-10.3c.4 1 1.8 4.9 1.8 4.9s1.3 2.5.9 3.3c-.4.8-16 7.4-16 7.4-.7-.1-1.2-.4-1.4-1-.7-1.4-1.3-2.8-1.9-4.3z"></path></g><linearGradient id="r" x1="1453.213" x2="1381.256" y1="1198.555" y2="1146.269" gradientTransform="translate(-935 -1005.37)" gradientUnits="userSpaceOnUse"><stop offset="0" stop-color="#f92468"></stop><stop offset="1" stop-color="#f9b449"></stop></linearGradient><path fill="url(#r)" d="m440.3 163 10.4-.7s2.1-12.5 10.4-16.7v-13.9s9.7 5.6 11.8 6.2c2.1.7 20.8-8.3 42.3 4.9 18.1 11.1 14.1 30.6 12.4 36.4-.3 1-.8 2.1-1.5 3-1.5 2.1-4.5 6.2-6 7.8-2.1 2.1 1.3 13.7-1.4 14.6-2.1.7-6.2-8.3-8.3-7.6-11.2 3.7-23.3 4.2-34.7 1.1-.8-.2-1.6.1-1.9.9-.9 1.9-2.8 5.4-4.3 6.4-2.1 1.4-2.1-7.6-4.2-9-2.1-1.4-25-21.5-25-21.5V163z"></path><path fill="none" stroke="#f93764" stroke-linecap="round" stroke-miterlimit="10" stroke-width="4" d="M527.4 165.2s8.5-6 13-1.5 3.8 9.2.2 10.3c-2.7.8-7-3.7-5.1-6.7s5.1-4.5 8.7-2.1c3.7 2.4 5.3 7.4 5.6 10.2"></path><circle cx="462.5" cy="164" r="3.9" fill="#f7b14a"></circle><linearGradient id="s" x1="1412.807" x2="1439.42" y1="1145.194" y2="1145.194" gradientTransform="translate(-935 -1005.37)" gradientUnits="userSpaceOnUse"><stop offset="0" stop-color="#f92468"></stop><stop offset="1" stop-color="#f93764"></stop></linearGradient><path fill="none" stroke="url(#s)" stroke-linecap="round" stroke-linejoin="round" d="M478.3 140.5s15.5-4.2 25.6.4"></path><g><linearGradient id="t" x1="471.24" x2="500.774" y1="735.646" y2="691.654" gradientTransform="translate(0 -596)" gradientUnits="userSpaceOnUse"><stop offset="0" stop-color="#f92468"></stop><stop offset="1" stop-color="#f9b449"></stop></linearGradient><circle cx="491.5" cy="109.5" r="15.5" fill="url(#t)"></circle><linearGradient id="u" x1="478.12" x2="504.524" y1="705.595" y2="705.595" gradientTransform="translate(0 -596)" gradientUnits="userSpaceOnUse"><stop offset="0" stop-color="#f92468"></stop><stop offset="1" stop-color="#f93764"></stop></linearGradient><circle cx="491.3" cy="109.6" r="12.7" fill="none" stroke="url(#u)" stroke-miterlimit="10"></circle><text fill="#f9b449" font-family="ArialMT" font-size="18.539" transform="translate(486.296 115.44)">$</text></g><g><linearGradient id="v" x1="496.192" x2="515.634" y1="697.044" y2="668.08" gradientTransform="translate(0 -596)" gradientUnits="userSpaceOnUse"><stop offset="0" stop-color="#f92468"></stop><stop offset="1" stop-color="#f9b449"></stop></linearGradient><circle cx="509.5" cy="81.2" r="10.2" fill="url(#v)"></circle><linearGradient id="w" x1="500.582" x2="518.308" y1="677.276" y2="677.276" gradientTransform="translate(0 -596)" gradientUnits="userSpaceOnUse"><stop offset="0" stop-color="#f92468"></stop><stop offset="1" stop-color="#f93764"></stop></linearGradient><circle cx="509.4" cy="81.3" r="8.4" fill="none" stroke="url(#w)" stroke-miterlimit="10"></circle><text fill="#f9b449" font-family="ArialMT" font-size="12.202" transform="translate(506.127 85.121)">$</text></g><g><linearGradient id="x" x1="463.415" x2="477.332" y1="698.177" y2="677.451" gradientTransform="translate(0 -596)" gradientUnits="userSpaceOnUse"><stop offset="0" stop-color="#f92468"></stop><stop offset="1" stop-color="#f9b449"></stop></linearGradient><circle cx="472.9" cy="88" r="7.3" fill="url(#x)"></circle><linearGradient id="y" x1="466.424" x2="479.391" y1="684.009" y2="684.009" gradientTransform="translate(0 -596)" gradientUnits="userSpaceOnUse"><stop offset="0" stop-color="#f92468"></stop><stop offset="1" stop-color="#f93764"></stop></linearGradient><circle cx="472.9" cy="88" r="6" fill="none" stroke="url(#y)" stroke-miterlimit="10"></circle><text fill="#f9b449" font-family="ArialMT" font-size="8.732" transform="translate(470.54 90.792)">$</text></g></svg>